HIERARCHY
ROOT Hips
{
	OFFSET 0.00000 0.00000 0.00000
	CHANNELS 6 Xposition Yposition Zposition Yrotation Zrotation Xrotation 
	JOINT Lumbar
	{
		OFFSET 0 0 0
		CHANNELS 3 Zrotation Xrotation Yrotation
		JOINT Neck
		{
			OFFSET 0.00 0.2701 0.00
			CHANNELS 3 Zrotation Xrotation Yrotation
			End Site
			{
				OFFSET 0.00 0.1379 0.00
			}
		}
		JOINT RightShoulder
		{
			OFFSET 0.0119 0.2289 0.1181
			CHANNELS 3 Zrotation Xrotation Yrotation
			JOINT RightElbow
			{
				OFFSET 0.00 -0.1475 0.00
				CHANNELS 2 Zrotation Yrotation
				JOINT RightWrist
				{
					OFFSET 0.00 -0.1605 0.00
					CHANNELS 2 Zrotation Xrotation
					End Site
					{
						OFFSET 0.0040 -0.1068 0.0006
					}
				}
			}
		}
		JOINT LeftShoulder
		{
			OFFSET 0.0119 0.2289 -0.1181
			CHANNELS 3 Zrotation Xrotation Yrotation
			JOINT LeftElbow
			{
				OFFSET 0.00 -0.1475 0.00
				CHANNELS 2 Zrotation Yrotation
				JOINT LeftWrist
				{
					OFFSET 0.00 -0.1605 0.00
					CHANNELS 2 Zrotation Xrotation
					End Site
					{
						OFFSET 0.0040 -0.1068 -0.0006
					}
				}
			}
		}
	}
	JOINT RightHip
	{
		OFFSET 0.0316 -0.0424 0.0458
		CHANNELS 3 Zrotation Xrotation Yrotation
		JOINT RightKnee
		{
			OFFSET 0.00 -0.2438 0.00
			CHANNELS 1 Zrotation
			JOINT RightAnkle
			{
				OFFSET 0.00 -0.2449 0.00
				CHANNELS 3 Zrotation Xrotation Yrotation
				End Site
				{
					OFFSET 0.1237 -0.0542 0.0051
				}
			}
		}
	}
	JOINT LeftHip
	{
		OFFSET 0.0316 -0.0424 -0.0458
		CHANNELS 3 Zrotation Xrotation Yrotation
		JOINT LeftKnee
		{
			OFFSET 0.00 -0.2438 0.00
			CHANNELS 1 Zrotation
			JOINT LeftAnkle
			{
				OFFSET 0.00 -0.2449 0.00
				CHANNELS 3 Zrotation Xrotation Yrotation
				End Site
				{
					OFFSET 0.1237 -0.0542 -0.0051
				}
			}
		}
	}
}
MOTION
Frames: 13
Frame Time: 0.02
-0.06858 -0.02754 0.20865 -189.14509 -50.92915 -5.89632 48.44125 -2.64008 -16.41075 5.41002 3.61597 -0.83079 140.77555 -64.60219 64.16694 5.32985 110.74738 20.53953 1.19985 169.88192 171.02725 90.01161 137.2721 -80.04259 -68.29996 4.11568 66.03859 -5.15631 -8.04973 -24.19604 -8.29658 -4.002 -2.85138 40.36703 -2.92284 13.76251 -22.53744 -6.48991 2.4467 1.87527
-0.0763 -0.0301 0.2063 -189.14247 -51.14278 -5.94347 48.63004 -2.68045 -16.50394 5.29086 3.80495 -0.83079 140.68127 -64.53042 64.16675 5.33002 110.70095 20.4861 1.11866 169.88191 171.02835 90.01161 137.33914 -80.0365 -68.34917 4.10645 66.56393 -4.90318 -8.11071 -23.59599 -8.1623 -4.10648 -2.89897 39.5887 -2.77776 13.571 -22.44632 -6.41281 2.48861 1.89456
-0.08446 -0.03283 0.20374 -189.09098 -51.31372 -6.00041 48.83451 -2.70958 -16.62608 5.17728 3.99847 -0.83079 140.6721 -64.46992 64.16652 5.33022 110.8727 20.52613 1.04175 169.88192 171.02663 90.01161 137.38171 -80.02661 -68.49796 4.10376 66.91595 -4.75458 -8.35981 -23.73518 -7.95102 -4.16898 -2.91932 38.71909 -2.60592 13.28506 -22.34413 -6.34415 2.53639 1.91883
-0.09246 -0.03546 0.20125 -189.06567 -51.49808 -6.0676 49.02894 -2.73928 -16.74742 5.06703 4.19545 -0.83079 140.60319 -64.4128 64.16632 5.33042 110.90255 20.5275 0.96063 169.88192 171.02725 90.01161 137.42445 -80.0148 -68.62058 4.10011 67.31415 -4.53712 -8.49265 -23.53523 -7.78288 -4.2448 -2.94927 37.88195 -2.43515 13.0097 -22.24098 -6.27486 2.58488 1.94278
-0.10029 -0.0382 0.19888 -189.02463 -51.71001 -6.07328 49.24003 -2.78793 -16.81398 4.92934 4.36942 -0.83079 140.62643 -64.3192 64.16607 5.33057 111.11299 20.51247 0.88974 169.88191 171.03183 90.01161 137.51293 -80.01541 -68.66509 4.08979 67.85129 -4.40513 -8.73846 -23.35643 -7.58158 -4.34569 -2.99133 37.08234 -2.31262 12.86653 -22.15985 -6.1912 2.62075 1.95933
-0.10859 -0.04075 0.1962 -189.00422 -51.85403 -6.20791 49.41872 -2.79543 -17.00133 4.8515 4.59166 -0.83079 140.47833 -64.30565 64.16592 5.33085 111.0018 20.55413 0.79836 169.88192 171.01689 90.01161 137.50105 -79.99308 -68.8925 4.09268 68.05713 -4.12326 -8.80487 -23.30611 -7.43011 -4.38459 -3.0018 36.18579 -2.08262 12.42961 -22.03489 -6.14056 2.68299 1.99186
-0.11809 -0.04276 0.19274 -189.05461 -51.81397 -6.71203 49.50082 -2.6806 -17.52956 4.93274 4.95394 -0.83079 139.8169 -64.49556 64.16606 5.3312 109.91611 20.72723 0.64884 169.88193 171.04111 90.01162 137.21126 -79.8739 -69.63134 4.15048 67.39241 -3.38301 -8.27132 -23.43075 -7.44074 -4.25628 -2.92861 35.01243 -1.56367 11.17609 -21.75289 -6.17021 2.82472 2.07112
-0.12805 -0.04458 0.18898 -189.1272 -51.70772 -7.34273 49.54963 -2.52664 -18.17591 5.0748 5.36323 -0.83079 138.98358 -64.76785 64.1663 5.33172 108.50578 20.95478 0.47871 169.88194 171.02966 90.01163 136.82253 -79.73738 -70.54497 4.21833 66.39945 -2.4923 -7.56321 -23.65788 -7.50294 -4.06792 -2.82498 33.75161 -0.93713 9.63626 -21.43663 -6.23479 2.99098 2.16545
-0.1378 -0.04646 0.18533 -189.18792 -51.63621 -7.9053 49.61526 -2.39814 -18.75966 5.19307 5.74591 -0.83079 138.24017 -65.01266 64.16648 5.33238 107.2641 21.15863 0.31803 169.88196 170.97254 90.01164 136.48357 -79.63239 -71.35865 4.26752 65.55576 -1.68323 -6.97521 -23.83628 -7.53778 -3.91113 -2.73726 32.54927 -0.3588 8.24584 -21.15838 -6.28874 3.14074 2.25043
-0.14756 -0.04844 0.18177 -189.25346 -51.54444 -8.51315 49.67472 -2.23736 -19.38324 5.29704 6.15091 -0.83079 137.44759 -65.21778 64.16669 5.33219 105.93728 21.36052 0.15646 169.88197 171.17196 90.01166 136.12358 -79.43074 -72.26299 4.37347 64.70687 -0.82159 -6.22183 -24.04966 -7.58679 -3.73526 -2.64005 31.25881 0.21771 6.76858 -20.77542 -6.31945 3.31391 2.34647
-0.15741 -0.05017 0.17796 -189.31613 -51.47862 -9.05637 49.73846 -2.13404 -19.95 5.44291 6.52054 -0.83079 136.71852 -65.52253 64.16689 5.33376 104.71242 21.57923 -0.00732 169.88198 170.83443 90.01167 135.78408 -79.4222 -73.01797 4.36719 63.79158 -0.03257 -5.7685 -24.2049 -7.61921 -3.5849 -2.5555 30.1397 0.82299 5.40803 -20.61459 -6.40851 3.44331 2.42259
-0.16743 -0.05123 0.17354 -189.35511 -51.50958 -9.39217 49.82512 -2.20449 -20.34411 5.70922 6.78094 -0.83079 136.17966 -66.10302 64.16706 5.34064 103.80758 21.82143 -0.17965 169.88198 168.97403 90.01167 135.52596 -79.98739 -73.32436 4.01644 62.78663 0.52121 -6.19 -24.17009 -7.59641 -3.52432 -2.51553 29.45362 1.48296 4.41757 -20.97344 -6.63445 3.45234 2.44356
-0.17751 -0.05204 0.16889 -189.39274 -51.56728 -9.65797 49.91622 -2.33315 -20.67427 6.01194 7.00415 -0.83079 135.7149 -66.77685 64.16723 5.34925 103.02267 22.07959 -0.35209 169.88198 166.58465 90.01166 135.29132 -80.74117 -73.4731 3.55817 61.72436 0.99672 -6.9173 -24.07003 -7.55501 -3.49086 -2.48911 28.95575 2.16741 3.55876 -21.57652 -6.92032 3.41541 2.44336
